<svg width="24" height="24" viewBox="0 0 24 24" fill="none" xmlns="http://www.w3.org/2000/svg">
<mask id="mask0_12327_260007" style="mask-type:alpha" maskUnits="userSpaceOnUse" x="0" y="0" width="24" height="24">
<rect width="24" height="24" fill="#D9D9D9"/>
</mask>
<g mask="url(#mask0_12327_260007)">
<path d="M13.9423 9.74621V8.43071C14.4859 8.17821 15.0548 7.9888 15.649 7.86246C16.2433 7.73613 16.8603 7.67296 17.5 7.67296C17.9013 7.67296 18.2911 7.70155 18.6693 7.75871C19.0474 7.81571 19.4269 7.89105 19.8078 7.98471V9.23846C19.4334 9.10763 19.0613 9.01271 18.6913 8.95371C18.3214 8.89471 17.9243 8.86521 17.5 8.86521C16.8603 8.86521 16.2408 8.94121 15.6413 9.09321C15.0419 9.24521 14.4756 9.46288 13.9423 9.74621ZM13.9423 15.227V13.8922C14.4731 13.6397 15.0404 13.4503 15.6443 13.324C16.2481 13.1978 16.8667 13.1347 17.5 13.1347C17.9013 13.1347 18.2911 13.1632 18.6693 13.2202C19.0474 13.2772 19.4269 13.3525 19.8078 13.4462V14.7C19.4334 14.5691 19.0613 14.4742 18.6913 14.4152C18.3214 14.3564 17.9243 14.327 17.5 14.327C16.8603 14.327 16.2408 14.4035 15.6413 14.5567C15.0419 14.7099 14.4756 14.9333 13.9423 15.227ZM13.9423 12.4962V11.1615C14.4859 10.909 15.0548 10.7195 15.649 10.5932C16.2433 10.4669 16.8603 10.4037 17.5 10.4037C17.9013 10.4037 18.2911 10.4323 18.6693 10.4895C19.0474 10.5465 19.4269 10.6218 19.8078 10.7155V11.9692C19.4334 11.8384 19.0613 11.7435 18.6913 11.6845C18.3214 11.6256 17.9243 11.5962 17.5 11.5962C16.8603 11.5962 16.2408 11.6754 15.6413 11.8337C15.0419 11.992 14.4756 12.2129 13.9423 12.4962ZM6.5 16.0192C7.32817 16.0192 8.13392 16.1131 8.91725 16.301C9.70058 16.4888 10.4782 16.7834 11.25 17.1847V7.35371C10.5475 6.89605 9.78725 6.5528 8.96925 6.32396C8.15125 6.09513 7.32817 5.98071 6.5 5.98071C5.9 5.98071 5.33942 6.0278 4.81825 6.12196C4.29708 6.2163 3.7615 6.37046 3.2115 6.58446C3.13467 6.61013 3.08017 6.64705 3.048 6.69521C3.016 6.74321 3 6.79605 3 6.85371V16.3115C3 16.4013 3.03208 16.467 3.09625 16.5087C3.16025 16.5504 3.23075 16.5551 3.30775 16.523C3.78208 16.3615 4.28267 16.2371 4.8095 16.15C5.3365 16.0628 5.9 16.0192 6.5 16.0192ZM12.75 17.1847C13.5218 16.7834 14.2994 16.4888 15.0828 16.301C15.8661 16.1131 16.6718 16.0192 17.5 16.0192C18.1 16.0192 18.6635 16.0628 19.1905 16.15C19.7173 16.2371 20.2179 16.3615 20.6923 16.523C20.7693 16.5551 20.8398 16.5504 20.9038 16.5087C20.9679 16.467 21 16.4013 21 16.3115V6.85371C21 6.79605 20.984 6.7448 20.952 6.69996C20.9198 6.65513 20.8653 6.61663 20.7885 6.58446C20.2385 6.37046 19.7029 6.2163 19.1818 6.12196C18.6606 6.0278 18.1 5.98071 17.5 5.98071C16.6718 5.98071 15.8487 6.09513 15.0307 6.32396C14.2127 6.5528 13.4525 6.89605 12.75 7.35371V17.1847ZM12 19.3845C11.1937 18.7896 10.3238 18.33 9.3905 18.0057C8.45717 17.6814 7.49367 17.5192 6.5 17.5192C5.88983 17.5192 5.2905 17.5868 4.702 17.722C4.1135 17.8573 3.54617 18.0564 3 18.3192C2.64367 18.4832 2.30458 18.4572 1.98275 18.2412C1.66092 18.0252 1.5 17.7191 1.5 17.323V6.46546C1.5 6.24996 1.5555 6.04771 1.6665 5.85871C1.77733 5.66955 1.93725 5.5333 2.14625 5.44996C2.82308 5.12046 3.5285 4.87655 4.2625 4.71821C4.9965 4.55988 5.74233 4.48071 6.5 4.48071C7.473 4.48071 8.42367 4.61371 9.352 4.87971C10.2802 5.14588 11.1628 5.53855 12 6.05771C12.8372 5.53855 13.7198 5.14588 14.648 4.87971C15.5763 4.61371 16.527 4.48071 17.5 4.48071C18.2577 4.48071 19.0035 4.55988 19.7375 4.71821C20.4715 4.87655 21.1769 5.12046 21.8538 5.44996C22.0627 5.5333 22.2227 5.66955 22.3335 5.85871C22.4445 6.04771 22.5 6.24996 22.5 6.46546V17.323C22.5 17.7191 22.3327 18.022 21.998 18.2317C21.6633 18.4412 21.3114 18.464 20.9423 18.3C20.4026 18.0435 19.8433 17.8492 19.2645 17.7172C18.6857 17.5852 18.0975 17.5192 17.5 17.5192C16.5063 17.5192 15.5428 17.6814 14.6095 18.0057C13.6762 18.33 12.8063 18.7896 12 19.3845Z" fill="#757575"/>
</g>
</svg>
