<svg width="24" height="24" viewBox="0 0 24 24" fill="none" xmlns="http://www.w3.org/2000/svg">
<mask id="mask0_14293_231656" style="mask-type:alpha" maskUnits="userSpaceOnUse" x="0" y="0" width="24" height="24">
<rect width="24" height="24" fill="#D9D9D9"/>
</mask>
<g mask="url(#mask0_14293_231656)">
<path d="M15.8462 12.6923L11.8885 8.86343C11.4103 8.40189 11.008 7.88814 10.6818 7.32218C10.3555 6.75619 10.1923 6.13983 10.1923 5.47308C10.1923 4.64723 10.4814 3.94525 11.0595 3.36715C11.6376 2.78905 12.3395 2.5 13.1654 2.5C13.7051 2.5 14.2035 2.63013 14.6606 2.8904C15.1176 3.15067 15.5128 3.48208 15.8462 3.88463C16.1795 3.48208 16.5747 3.15067 17.0317 2.8904C17.4888 2.63013 17.9872 2.5 18.5269 2.5C19.3528 2.5 20.0547 2.78905 20.6328 3.36715C21.2109 3.94525 21.5 4.64723 21.5 5.47308C21.5 6.13983 21.3394 6.75619 21.0182 7.32218C20.6971 7.88814 20.2974 8.40189 19.8192 8.86343L15.8462 12.6923ZM15.8462 10.6039L18.7058 7.8327C19.0417 7.5032 19.3414 7.14486 19.6048 6.75768C19.8683 6.37051 20 5.94231 20 5.47308C20 5.06153 19.8574 4.71313 19.5721 4.42788C19.2869 4.14261 18.9385 3.99998 18.5269 3.99998C18.2102 3.99998 17.9205 4.08267 17.6577 4.24805C17.3948 4.41345 17.1628 4.62308 16.9615 4.87693L15.8462 6.23458L14.7308 4.87693C14.5295 4.62308 14.2974 4.41345 14.0346 4.24805C13.7718 4.08267 13.482 3.99998 13.1654 3.99998C12.7538 3.99998 12.4054 4.14261 12.1202 4.42788C11.8349 4.71313 11.6923 5.06153 11.6923 5.47308C11.6923 5.94231 11.824 6.37051 12.0875 6.75768C12.3509 7.14486 12.6506 7.5032 12.9865 7.8327L15.8462 10.6039ZM6.70191 18.5769L13.9596 20.6308L19.9289 18.7808C19.8776 18.5538 19.7718 18.3798 19.6115 18.2586C19.4512 18.1375 19.2698 18.0769 19.0673 18.0769H14.17C13.7336 18.0769 13.3628 18.0602 13.0577 18.0269C12.7526 17.9936 12.4391 17.9205 12.1173 17.8077L9.85963 17.0615L10.3039 15.5923L12.3289 16.2962C12.6314 16.3987 12.9808 16.4686 13.3769 16.5058C13.7731 16.543 14.3365 16.5667 15.0673 16.577C15.0673 16.3295 15.0116 16.116 14.9 15.9366C14.7885 15.7571 14.6417 15.6359 14.4596 15.5731L8.65771 13.4423C8.63847 13.4359 8.62084 13.4311 8.60481 13.4279C8.58879 13.4247 8.57116 13.4231 8.55193 13.4231H6.70191V18.5769ZM1.70198 21.5V11.9231H8.54061C8.64559 11.9231 8.75192 11.9347 8.85961 11.9577C8.96731 11.9808 9.06731 12.0077 9.15961 12.0385L14.9865 14.1847C15.4404 14.3526 15.8173 14.6497 16.1173 15.076C16.4173 15.5023 16.5673 16.0026 16.5673 16.577H19.0673C19.7853 16.577 20.3702 16.8087 20.8221 17.2721C21.274 17.7356 21.5 18.3372 21.5 19.0769V19.8846L14.0096 22.2115L6.70191 20.1269V21.5H1.70198ZM3.20196 20H5.20196V13.4231H3.20196V20Z" fill="#222222"/>
</g>
</svg>
