<svg width="24" height="24" viewBox="0 0 24 24" fill="none" xmlns="http://www.w3.org/2000/svg">
<g clip-path="url(#clip0_5253_21296)">
<path d="M12.0001 3C6.92658 3 2.8125 7.12608 2.8125 12.2161C2.8125 16.288 5.44502 19.7426 9.09553 20.9612C9.55469 21.0465 9.72326 20.7613 9.72326 20.5178C9.72326 20.2981 9.71474 19.5721 9.71079 18.802C7.1548 19.3595 6.61545 17.7146 6.61545 17.7146C6.19752 16.6494 5.59534 16.3661 5.59534 16.3661C4.76175 15.7941 5.65817 15.8059 5.65817 15.8059C6.58076 15.8709 7.06655 16.7556 7.06655 16.7556C7.88599 18.1645 9.21587 17.7572 9.74015 17.5217C9.82261 16.9261 10.0607 16.5195 10.3235 16.2894C8.28278 16.0563 6.13757 15.2661 6.13757 11.7347C6.13757 10.7285 6.49648 9.90641 7.0842 9.261C6.98881 9.02888 6.67433 8.09152 7.17321 6.82207C7.17321 6.82207 7.94472 6.57438 9.70044 7.76676C10.4333 7.56256 11.2193 7.46015 12.0001 7.45664C12.7809 7.46015 13.5674 7.56256 14.3017 7.76676C16.0553 6.57438 16.8257 6.82207 16.8257 6.82207C17.3258 8.09152 17.0112 9.02888 16.9158 9.261C17.5049 9.90641 17.8614 10.7285 17.8614 11.7347C17.8614 15.2745 15.712 16.0539 13.6662 16.282C13.9957 16.568 14.2894 17.1289 14.2894 17.9887C14.2894 19.2218 14.2787 20.2143 14.2787 20.5178C14.2787 20.7631 14.4441 21.0505 14.9098 20.96C18.5583 19.74 21.1875 16.2866 21.1875 12.2161C21.1875 7.12608 17.074 3 12.0001 3ZM6.25355 16.1285C6.23331 16.1743 6.1615 16.188 6.09608 16.1566C6.02944 16.1265 5.99201 16.0641 6.01362 16.0182C6.0334 15.971 6.10536 15.9579 6.17185 15.9895C6.23864 16.0195 6.27667 16.0826 6.25355 16.1285ZM6.70547 16.533C6.66166 16.5737 6.576 16.5548 6.51788 16.4904C6.45778 16.4262 6.44653 16.3402 6.49095 16.2989C6.53614 16.2581 6.61921 16.2772 6.67946 16.3415C6.73955 16.4065 6.75127 16.4918 6.70547 16.533ZM7.01551 17.0505C6.95922 17.0898 6.86717 17.053 6.81027 16.971C6.75398 16.8891 6.75398 16.7908 6.81149 16.7514C6.86854 16.712 6.95922 16.7474 7.01688 16.8288C7.07302 16.9121 7.07302 17.0104 7.01551 17.0505ZM7.53985 17.6499C7.48949 17.7056 7.38223 17.6907 7.30373 17.6147C7.2234 17.5403 7.20103 17.4349 7.25154 17.3792C7.30251 17.3233 7.41038 17.339 7.48949 17.4144C7.56922 17.4886 7.59356 17.5948 7.53985 17.6499ZM8.21751 17.8523C8.1953 17.9245 8.092 17.9573 7.98793 17.9266C7.88402 17.895 7.81601 17.8105 7.83701 17.7375C7.85861 17.6649 7.96237 17.6307 8.0672 17.6635C8.17096 17.6949 8.23912 17.7789 8.21751 17.8523ZM8.98872 17.9381C8.99131 18.0141 8.90306 18.0771 8.79383 18.0785C8.68398 18.0809 8.59513 18.0194 8.59391 17.9447C8.59391 17.8679 8.68018 17.8055 8.79002 17.8036C8.89926 17.8015 8.98872 17.8626 8.98872 17.9381ZM9.74635 17.909C9.75943 17.9831 9.68351 18.0593 9.57503 18.0796C9.46838 18.0991 9.36964 18.0533 9.3561 17.9798C9.34286 17.9038 9.42015 17.8276 9.52665 17.8079C9.63528 17.789 9.7325 17.8336 9.74635 17.909Z" fill="#757575"/>
</g>
<defs>
<clipPath id="clip0_5253_21296">
<rect width="18.375" height="18" fill="white" transform="translate(2.8125 3)"/>
</clipPath>
</defs>
</svg>
