<svg width="40" height="40" viewBox="0 0 40 40" fill="none" xmlns="http://www.w3.org/2000/svg">
<g clip-path="url(#clip0_5253_21275)">
<rect x="5.60532" y="5.57851" width="28.7894" height="28.843" fill="#FEFEFE"/>
<path fill-rule="evenodd" clip-rule="evenodd" d="M33.5182 13.456L20.2325 13.456C16.5167 13.456 13.5045 10.4438 13.5045 6.728C13.5045 3.01223 16.5167 -8.70228e-06 20.2325 -8.34465e-06L29.6332 -7.51019e-06V-1.09258C31.5127 -1.09258 33.1173 -0.682939 34.4627 -7.15256e-06L40 -6.67572e-06L40 8.74678C40.0117 8.9396 40.0176 9.12992 40.0176 9.31713V20.3322C40.0176 16.6587 37.1415 13.657 33.5182 13.456Z" fill="url(#paint0_linear_5253_21275)"/>
<path fill-rule="evenodd" clip-rule="evenodd" d="M12.7693 -0.826111H-0.833359V10.626H-0.00693822L-0.00693858 19.7378C-0.00693876 23.4768 3.02413 26.5079 6.76315 26.5079C10.5022 26.5079 13.5332 23.4768 13.5332 19.7378V6.81303C13.5502 3.02399 16.6271 -0.0423723 20.4201 -0.0423725L12.7693 -0.0423721V-0.826111Z" fill="url(#paint1_linear_5253_21275)"/>
<path fill-rule="evenodd" clip-rule="evenodd" d="M6.49382 26.457L19.74 26.457C23.4797 26.457 26.5114 29.4887 26.5114 33.2285C26.5114 36.9683 23.4797 40 19.7399 40L-1.52356e-05 40L-1.35206e-05 30.0473C-0.00462847 29.9292 -0.00692743 29.8122 -0.00692742 29.6964L-0.00692749 19.5823C-0.0061052 23.2556 2.87044 26.2568 6.49382 26.457Z" fill="url(#paint2_linear_5253_21275)"/>
<path fill-rule="evenodd" clip-rule="evenodd" d="M30.9301 40L40 40V33.9733C40.5259 32.753 40.8334 31.3362 40.8334 29.7125H40V20.1944C40 16.4574 36.9706 13.4279 33.2335 13.4279C29.4965 13.4279 26.467 16.4574 26.467 20.1944L26.467 29.7125H26.4669V33.1212C26.4669 36.9248 23.3835 40.0081 19.58 40.0081H30.5464C30.673 40.0081 30.8009 40.0054 30.9301 40Z" fill="url(#paint3_linear_5253_21275)"/>
</g>
<defs>
<linearGradient id="paint0_linear_5253_21275" x1="15.4574" y1="4.97717" x2="33.1713" y2="20.1906" gradientUnits="userSpaceOnUse">
<stop stop-color="#EEAF35"/>
<stop offset="1" stop-color="#FBC93C"/>
</linearGradient>
<linearGradient id="paint1_linear_5253_21275" x1="13.0556" y1="1.01875" x2="7.08012" y2="26.8568" gradientUnits="userSpaceOnUse">
<stop stop-color="#AC6CBB"/>
<stop offset="1" stop-color="#7D5FBD"/>
</linearGradient>
<linearGradient id="paint2_linear_5253_21275" x1="-0.833319" y1="18.9038" x2="22.0099" y2="41.671" gradientUnits="userSpaceOnUse">
<stop stop-color="#0ABBE5"/>
<stop offset="1" stop-color="#3B98CC"/>
</linearGradient>
<linearGradient id="paint3_linear_5253_21275" x1="33.8888" y1="13.0069" x2="25.6092" y2="40.7032" gradientUnits="userSpaceOnUse">
<stop stop-color="#5C9B1C"/>
<stop offset="1" stop-color="#50B600"/>
</linearGradient>
<clipPath id="clip0_5253_21275">
<rect width="40" height="40" rx="11.25" fill="white"/>
</clipPath>
</defs>
</svg>
