<svg width="24" height="24" viewBox="0 0 24 24" fill="none" xmlns="http://www.w3.org/2000/svg">
<path d="M11.9896 17.3198C12.2601 17.3198 12.4886 17.2264 12.675 17.0397C12.8614 16.8529 12.9546 16.6242 12.9546 16.3537C12.9546 16.0832 12.8613 15.8548 12.6745 15.6683C12.4877 15.4819 12.2591 15.3887 11.9886 15.3887C11.7181 15.3887 11.4896 15.4821 11.3032 15.6688C11.1167 15.8556 11.0235 16.0843 11.0235 16.3548C11.0235 16.6253 11.1169 16.8537 11.3037 17.0402C11.4904 17.2266 11.7191 17.3198 11.9896 17.3198ZM11.3186 13.9275H12.6522C12.6644 13.4611 12.7327 13.0886 12.8572 12.8098C12.9817 12.5311 13.2838 12.1616 13.7636 11.7012C14.1801 11.2846 14.4993 10.8999 14.7209 10.5471C14.9426 10.1942 15.0534 9.77755 15.0534 9.29703C15.0534 8.48162 14.7604 7.84465 14.1744 7.38614C13.5884 6.92764 12.8952 6.6984 12.0947 6.6984C11.3041 6.6984 10.6497 6.90943 10.1317 7.3315C9.61368 7.75355 9.24415 8.25061 9.0231 8.82266L10.2401 9.31091C10.3555 8.99634 10.5528 8.68997 10.8322 8.3918C11.1115 8.09361 11.5263 7.94452 12.0765 7.94452C12.6365 7.94452 13.0503 8.09787 13.3181 8.40456C13.5859 8.71124 13.7199 9.04859 13.7199 9.41662C13.7199 9.73847 13.6282 10.033 13.4447 10.3002C13.2613 10.5674 13.0275 10.8255 12.7433 11.0745C12.1215 11.6356 11.7286 12.0832 11.5646 12.4172C11.4006 12.7512 11.3186 13.2547 11.3186 13.9275ZM12.0016 21C10.7568 21 9.58677 20.7638 8.49148 20.2914C7.39618 19.8189 6.44342 19.1778 5.63322 18.368C4.82299 17.5581 4.18157 16.6058 3.70894 15.511C3.23631 14.4162 3 13.2464 3 12.0016C3 10.7568 3.23621 9.58677 3.70863 8.49148C4.18106 7.39618 4.82219 6.44343 5.63203 5.63322C6.44189 4.823 7.39423 4.18157 8.48904 3.70894C9.58384 3.23631 10.7536 3 11.9984 3C13.2432 3 14.4132 3.23621 15.5085 3.70863C16.6038 4.18106 17.5566 4.82219 18.3668 5.63203C19.177 6.44189 19.8184 7.39423 20.2911 8.48904C20.7637 9.58384 21 10.7536 21 11.9984C21 13.2432 20.7638 14.4132 20.2914 15.5085C19.8189 16.6038 19.1778 17.5566 18.368 18.3668C17.5581 19.177 16.6058 19.8184 15.511 20.2911C14.4162 20.7637 13.2464 21 12.0016 21ZM12 19.579C14.1158 19.579 15.9079 18.8448 17.3763 17.3763C18.8448 15.9079 19.579 14.1158 19.579 12C19.579 9.88421 18.8448 8.0921 17.3763 6.62367C15.9079 5.15525 14.1158 4.42103 12 4.42103C9.8842 4.42103 8.09209 5.15525 6.62367 6.62367C5.15525 8.0921 4.42103 9.88421 4.42103 12C4.42103 14.1158 5.15525 15.9079 6.62367 17.3763C8.09209 18.8448 9.8842 19.579 12 19.579Z" fill="#222222"/>
</svg>
