<svg width="24" height="24" viewBox="0 0 24 24" fill="none" xmlns="http://www.w3.org/2000/svg">
<mask id="mask0_5694_15945" style="mask-type:alpha" maskUnits="userSpaceOnUse" x="0" y="0" width="24" height="24">
<rect width="24" height="24" fill="#D9D9D9"/>
</mask>
<g mask="url(#mask0_5694_15945)">
<path d="M4.30773 20.5C3.8026 20.5 3.37503 20.325 3.02503 19.975C2.67503 19.625 2.50003 19.1974 2.50003 18.6923V5.3077C2.50003 4.80257 2.67503 4.375 3.02503 4.025C3.37503 3.675 3.8026 3.5 4.30773 3.5H19.6923C20.1974 3.5 20.625 3.675 20.975 4.025C21.325 4.375 21.5 4.80257 21.5 5.3077V18.6923C21.5 19.1974 21.325 19.625 20.975 19.975C20.625 20.325 20.1974 20.5 19.6923 20.5H4.30773ZM4.30773 19H19.6923C19.7692 19 19.8397 18.9679 19.9039 18.9038C19.968 18.8397 20 18.7692 20 18.6923V5.3077C20 5.23077 19.968 5.16024 19.9039 5.09613C19.8397 5.03203 19.7692 4.99998 19.6923 4.99998H4.30773C4.2308 4.99998 4.16027 5.03203 4.09616 5.09613C4.03206 5.16024 4.00001 5.23077 4.00001 5.3077V18.6923C4.00001 18.7692 4.03206 18.8397 4.09616 18.9038C4.16027 18.9679 4.2308 19 4.30773 19ZM6.38466 16.6153H17.6154V15.1154H6.38466V16.6153ZM6.38466 12.75H10.0769V7.38463H6.38466V12.75ZM12.2693 12.75H17.6154V11.25H12.2693V12.75ZM12.2693 8.88458H17.6154V7.38463H12.2693V8.88458Z" fill="#222222"/>
</g>
</svg>
