<svg width="24" height="24" viewBox="0 0 24 24" fill="none" xmlns="http://www.w3.org/2000/svg">
<path d="M12.0016 21C10.7568 21 9.58677 20.7638 8.49148 20.2914C7.39618 19.8189 6.44342 19.1778 5.63322 18.368C4.82299 17.5581 4.18157 16.6058 3.70894 15.511C3.23631 14.4162 3 13.2464 3 12.0016C3 10.7568 3.23621 9.58677 3.70863 8.49148C4.18106 7.39618 4.82219 6.44343 5.63203 5.63322C6.44189 4.823 7.39423 4.18157 8.48904 3.70894C9.58384 3.23631 10.7536 3 11.9984 3C13.2432 3 14.4132 3.23621 15.5085 3.70863C16.6038 4.18106 17.5566 4.82219 18.3668 5.63203C19.177 6.44189 19.8184 7.39423 20.2911 8.48904C20.7637 9.58384 21 10.7536 21 11.9984C21 13.2432 20.7638 14.4132 20.2914 15.5085C19.8189 16.6038 19.1778 17.5566 18.368 18.3668C17.5581 19.177 16.6058 19.8184 15.511 20.2911C14.4162 20.7637 13.2464 21 12.0016 21ZM11.0526 19.5316V17.6842C10.5316 17.6842 10.0855 17.4987 9.71447 17.1276C9.34341 16.7566 9.15789 16.3105 9.15789 15.7895V14.8421L4.61051 10.2947C4.56314 10.5789 4.51972 10.8632 4.48024 11.1474C4.44077 11.4316 4.42103 11.7158 4.42103 12C4.42103 13.9105 5.04867 15.5842 6.30393 17.0211C7.5592 18.4579 9.1421 19.2948 11.0526 19.5316ZM17.5895 17.1158C17.9053 16.7684 18.1895 16.3934 18.4421 15.9908C18.6948 15.5882 18.904 15.1697 19.0698 14.7355C19.2355 14.3013 19.3619 13.8553 19.4487 13.3974C19.5355 12.9395 19.579 12.4737 19.579 12C19.579 10.448 19.1502 9.0307 18.2927 7.74796C17.4352 6.46524 16.285 5.53967 14.8421 4.97124V5.3684C14.8421 5.88946 14.6566 6.33551 14.2855 6.70657C13.9145 7.07762 13.4684 7.26315 12.9474 7.26315H11.0526V9.15789C11.0526 9.42631 10.9618 9.65131 10.7803 9.83289C10.5987 10.0145 10.3737 10.1053 10.1053 10.1053H8.21052V12H13.8947C14.1632 12 14.3882 12.0908 14.5697 12.2724C14.7513 12.4539 14.8421 12.6789 14.8421 12.9474V15.7895H15.7895C16.2 15.7895 16.5711 15.9119 16.9026 16.1566C17.2342 16.4013 17.4632 16.7211 17.5895 17.1158Z" fill="#757575"/>
</svg>
