<svg width="23" height="23" viewBox="0 0 25 25" fill="none" xmlns="http://www.w3.org/2000/svg">
<mask id="mask0_14374_294942" style="mask-type:alpha" maskUnits="userSpaceOnUse" x="0" y="0" width="25" height="24">
<rect x="0.333313" y="0.16153" width="23.6769" height="23.6769" fill="#D9D9D9"/>
</mask>
<g mask="url(#mask0_14374_294942)">
<path d="M11.4319 16.686H12.9116V11.0134H11.4319V16.686ZM12.1718 9.32496C12.3975 9.32496 12.5868 9.24861 12.7395 9.09589C12.8922 8.94317 12.9686 8.75393 12.9686 8.52816C12.9686 8.30241 12.8922 8.11317 12.7395 7.96043C12.5868 7.80772 12.3975 7.73136 12.1718 7.73136C11.946 7.73136 11.7568 7.80772 11.604 7.96043C11.4513 8.11317 11.375 8.30241 11.375 8.52816C11.375 8.75393 11.4513 8.94317 11.604 9.09589C11.7568 9.24861 11.946 9.32496 12.1718 9.32496ZM12.1734 21.3721C10.8772 21.3721 9.65877 21.1261 8.5182 20.6341C7.37761 20.1422 6.38547 19.4746 5.54177 18.6312C4.69804 17.7879 4.0301 16.7962 3.53793 15.6561C3.04577 14.516 2.79968 13.2979 2.79968 12.0016C2.79968 10.7054 3.04566 9.48699 3.53761 8.34642C4.02957 7.20583 4.69721 6.21369 5.54053 5.36998C6.38387 4.52626 7.37558 3.85832 8.51566 3.36615C9.65572 2.87398 10.8739 2.6279 12.1701 2.6279C13.4664 2.6279 14.6848 2.87388 15.8253 3.36583C16.9659 3.85778 17.9581 4.52542 18.8018 5.36875C19.6455 6.21209 20.3134 7.2038 20.8056 8.34388C21.2978 9.48394 21.5439 10.7021 21.5439 11.9983C21.5439 13.2946 21.2979 14.513 20.8059 15.6536C20.314 16.7941 19.6463 17.7863 18.803 18.63C17.9597 19.4737 16.968 20.1417 15.8279 20.6338C14.6878 21.126 13.4697 21.3721 12.1734 21.3721ZM12.1718 19.8923C14.375 19.8923 16.2412 19.1277 17.7704 17.5986C19.2995 16.0695 20.0641 14.2033 20.0641 12C20.0641 9.79672 19.2995 7.93052 17.7704 6.40138C16.2412 4.87225 14.375 4.10768 12.1718 4.10768C9.9685 4.10768 8.1023 4.87225 6.57317 6.40138C5.04403 7.93052 4.27947 9.79672 4.27947 12C4.27947 14.2033 5.04403 16.0695 6.57317 17.5986C8.1023 19.1277 9.9685 19.8923 12.1718 19.8923Z" fill="#FEFEFE"/>
</g>
</svg>
