<svg width="24" height="24" viewBox="0 0 24 24" fill="none" xmlns="http://www.w3.org/2000/svg">
<g clip-path="url(#clip0_14293_231662)">
<path d="M22.7798 6.59882C22.521 5.6307 21.7587 4.86835 20.7906 4.60962C19.036 4.1394 12 4.1394 12 4.1394C12 4.1394 4.96406 4.1394 3.20939 4.60962C2.24134 4.86835 1.47889 5.6307 1.22016 6.59882C0.75 8.35346 0.75 12.0144 0.75 12.0144C0.75 12.0144 0.75 15.6753 1.22016 17.4301C1.47889 18.3981 2.24134 19.1605 3.20939 19.4193C4.96406 19.8894 12 19.8894 12 19.8894C12 19.8894 19.036 19.8894 20.7906 19.4193C21.7587 19.1605 22.521 18.3981 22.7798 17.4301C23.25 15.6753 23.25 12.0144 23.25 12.0144C23.25 12.0144 23.25 8.35346 22.7798 6.59882Z" fill="#757575"/>
<path d="M9.69885 15.3383L15.5795 12.0146L9.69885 8.69055V15.3383Z" fill="#FEFEFE"/>
</g>
<defs>
<clipPath id="clip0_14293_231662">
<rect width="22.5" height="15.75" fill="white" transform="translate(0.75 4.13934)"/>
</clipPath>
</defs>
</svg>
